<?xml version="1.0" encoding="UTF-8" standalone="no"?>
<!DOCTYPE svg PUBLIC "-//W3C//DTD SVG 1.1//EN"
 "http://www.w3.org/Graphics/SVG/1.1/DTD/svg11.dtd">
<!-- Generated by graphviz version 2.43.0 (0)
 -->
<!-- Title: G Pages: 1 -->
<svg width="827pt" height="152pt"
 viewBox="0.00 0.00 826.57 152.20" xmlns="http://www.w3.org/2000/svg" xmlns:xlink="http://www.w3.org/1999/xlink">
<g id="graph0" class="graph" transform="scale(1 1) rotate(0) translate(21.6 130.6)">
<title>G</title>
<polygon fill="white" stroke="transparent" points="-21.6,21.6 -21.6,-130.6 804.97,-130.6 804.97,21.6 -21.6,21.6"/>
<text text-anchor="start" x="270.69" y="-94.8" font-family="Helvetica,sans-Serif" font-weight="bold" font-size="14.00">Domain 1: Medisafe (Non&#45;PSP)</text>
<!-- start -->
<g id="node1" class="node">
<title>start</title>
<ellipse fill="white" stroke="#333333" stroke-width="1.4" cx="39.5" cy="-43" rx="39.5" ry="18"/>
<text text-anchor="middle" x="39.5" y="-40.2" font-family="Helvetica,sans-Serif" font-size="11.00">START</text>
</g>
<!-- src_data -->
<g id="node2" class="node">
<title>src_data</title>
<polygon fill="white" stroke="#333333" stroke-width="1.4" points="297.56,-82.5 157.77,-82.5 121.81,-3.5 261.6,-3.5 297.56,-82.5"/>
<text text-anchor="start" x="184.19" y="-55.2" font-family="Helvetica,sans-Serif" font-weight="bold" font-size="11.00">SOURCE</text>
<text text-anchor="start" x="202.69" y="-44.2" font-family="Helvetica,sans-Serif" font-size="11.00">S3</text>
<text text-anchor="start" x="170.19" y="-34.8" font-family="Helvetica,sans-Serif" font-size="9.00">16 table(s)/file(s)</text>
<text text-anchor="start" x="189.69" y="-25.8" font-family="Helvetica,sans-Serif" font-size="9.00" fill="#555555">Full Load</text>
</g>
<!-- start&#45;&gt;src_data -->
<g id="edge1" class="edge">
<title>start&#45;&gt;src_data</title>
<path fill="none" stroke="#333333" stroke-width="1.2" d="M79.09,-43C94.64,-43 113.18,-43 131.29,-43"/>
<polygon fill="#333333" stroke="#333333" stroke-width="1.2" points="131.57,-45.8 139.57,-43 131.57,-40.2 131.57,-45.8"/>
</g>
<!-- pipe_0 -->
<g id="node3" class="node">
<title>pipe_0</title>
<polygon fill="white" stroke="#333333" stroke-width="1.4" points="488.37,-61 340.37,-61 340.37,-25 488.37,-25 488.37,-61"/>
<text text-anchor="middle" x="414.37" y="-40.2" font-family="Helvetica,sans-Serif" font-size="11.00">o_ingest_medisafe_data</text>
</g>
<!-- src_data&#45;&gt;pipe_0 -->
<g id="edge2" class="edge">
<title>src_data&#45;&gt;pipe_0</title>
<path fill="none" stroke="#333333" stroke-width="1.2" d="M279.59,-43C296.35,-43 314.45,-43 331.74,-43"/>
<polygon fill="#333333" stroke="#333333" stroke-width="1.2" points="332.16,-45.8 340.16,-43 332.16,-40.2 332.16,-45.8"/>
</g>
<!-- tgt_db -->
<g id="node4" class="node">
<title>tgt_db</title>
<path fill="white" stroke="#333333" stroke-width="1.4" d="M661.37,-78.18C661.37,-82.5 632.24,-86 596.37,-86 560.51,-86 531.37,-82.5 531.37,-78.18 531.37,-78.18 531.37,-7.82 531.37,-7.82 531.37,-3.5 560.51,0 596.37,0 632.24,0 661.37,-3.5 661.37,-7.82 661.37,-7.82 661.37,-78.18 661.37,-78.18"/>
<path fill="none" stroke="#333333" stroke-width="1.4" d="M661.37,-78.18C661.37,-73.87 632.24,-70.36 596.37,-70.36 560.51,-70.36 531.37,-73.87 531.37,-78.18"/>
<text text-anchor="start" x="572.37" y="-50.7" font-family="Helvetica,sans-Serif" font-weight="bold" font-size="11.00">TARGET</text>
<text text-anchor="start" x="572.87" y="-39.7" font-family="Helvetica,sans-Serif" font-size="11.00">BRONZE</text>
<text text-anchor="start" x="554.87" y="-30.3" font-family="Helvetica,sans-Serif" font-size="9.00">16 *_RAW table(s)</text>
</g>
<!-- pipe_0&#45;&gt;tgt_db -->
<g id="edge3" class="edge">
<title>pipe_0&#45;&gt;tgt_db</title>
<path fill="none" stroke="#333333" stroke-width="1.2" d="M488.58,-43C499.94,-43 511.67,-43 523,-43"/>
<polygon fill="#333333" stroke="#333333" stroke-width="1.2" points="523.18,-45.8 531.18,-43 523.18,-40.2 523.18,-45.8"/>
</g>
<!-- end_n -->
<g id="node5" class="node">
<title>end_n</title>
<ellipse fill="white" stroke="#333333" stroke-width="1.4" cx="743.87" cy="-43" rx="39.5" ry="18"/>
<text text-anchor="middle" x="743.87" y="-40.2" font-family="Helvetica,sans-Serif" font-size="11.00">END</text>
</g>
<!-- tgt_db&#45;&gt;end_n -->
<g id="edge4" class="edge">
<title>tgt_db&#45;&gt;end_n</title>
<path fill="none" stroke="#333333" stroke-width="1.2" d="M661.61,-43C673.14,-43 684.95,-43 695.88,-43"/>
<polygon fill="#333333" stroke="#333333" stroke-width="1.2" points="696.04,-45.8 704.04,-43 696.04,-40.2 696.04,-45.8"/>
</g>
</g>
</svg>
